<svg width="58" height="59" viewBox="0 0 58 59" fill="none" xmlns="http://www.w3.org/2000/svg">
<path d="M1 38.612L11.5471 44.1957C9.56174 45.3125 9.16881 47.8665 9.22051 49.004C11.7022 50.6171 14.1838 49.0557 15.1145 48.0733L20.388 58C22.7456 57.5037 22.9214 54.3809 22.7146 52.8816L20.388 42.7998L34.8127 30.7017L47.5312 55.6734C51.0055 54.6808 50.8401 50.8135 50.3231 49.004L45.67 19.8444C51.2537 16.2253 61.1493 7.68425 56.0619 2.47275C50.9745 -2.73874 42.4645 7.12587 38.8454 12.7096C30.9351 11.5205 13.9357 8.9561 9.22051 8.2116C4.50535 7.4671 3.01635 10.1762 2.86125 11.6239L28.1432 24.4975L16.0451 38.612C14.0287 37.9399 9.22051 36.4405 6.11843 35.8201C3.01635 35.1997 1.41361 37.4229 1 38.612Z" stroke="#FF471D"/>
</svg>
