<svg width="186" height="31" viewBox="0 0 186 31" fill="none" xmlns="http://www.w3.org/2000/svg">
<path d="M186 15.5C176.8 14.7 171.833 5.16667 170.5 0.5C170.5 11 160.5 13.6667 156.5 15.5C166.5 18.5 169.833 27.6667 170.5 30.5C173 21 182.667 16.6667 186 15.5Z" fill="#ACADB7"/>
<rect width="2" height="31" transform="matrix(-1 0 0 1 149 0)" fill="#ACADB7"/>
<path d="M16.762 27.252C16.1727 27.4787 15.368 27.694 14.348 27.898C13.7587 28.034 13.1693 28.136 12.58 28.204C11.9907 28.2947 11.39 28.34 10.778 28.34C8.98733 28.34 7.38933 27.966 5.984 27.218C4.57867 26.4473 3.47933 25.3933 2.686 24.056C1.91533 22.7187 1.53 21.2 1.53 19.5C1.53 17.8 1.91533 16.2813 2.686 14.944C3.47933 13.6067 4.57867 12.564 5.984 11.816C7.38933 11.0453 8.98733 10.66 10.778 10.66C11.73 10.66 12.7613 10.7847 13.872 11.034C14.756 11.2153 15.5153 11.4193 16.15 11.646V9.164H16.83V17.732H16.184V16.814C16.184 16.0887 15.878 15.284 15.266 14.4C14.654 13.516 13.906 12.768 13.022 12.156C12.1607 11.5213 11.3787 11.204 10.676 11.204C9.74667 11.204 8.93067 11.5213 8.228 12.156C7.548 12.768 7.02667 13.6973 6.664 14.944C6.30133 16.168 6.12 17.6867 6.12 19.5C6.12 21.3133 6.30133 22.832 6.664 24.056C7.02667 25.28 7.548 26.2093 8.228 26.844C8.93067 27.456 9.74667 27.762 10.676 27.762C11.4693 27.762 12.342 27.456 13.294 26.844C14.246 26.2093 15.062 25.4387 15.742 24.532C16.422 23.6253 16.7847 22.7753 16.83 21.982V21.03H17.442V29.462H16.762V27.252ZM19.8555 27.32H23.0175V11.68H19.8555V11H27.3695V14.57C27.8228 13.3233 28.4915 12.36 29.3755 11.68C30.2595 11 31.2795 10.66 32.4355 10.66C33.0928 10.66 33.7388 10.796 34.3735 11.068C34.5548 11.136 34.7361 11.2153 34.9175 11.306C35.0988 11.3967 35.2801 11.4873 35.4615 11.578V8.892H36.1415V18.038H35.5635V17.018C35.5635 16.3153 35.3028 15.5787 34.7815 14.808C34.2601 14.0373 33.6255 13.3913 32.8775 12.87C32.1295 12.326 31.4495 12.054 30.8375 12.054C30.2028 12.054 29.6248 12.3373 29.1035 12.904C28.5821 13.448 28.1628 14.23 27.8455 15.25C27.5281 16.27 27.3695 17.4713 27.3695 18.854V27.32H31.6875V28H19.8555V27.32ZM53.3083 27.252C52.7189 27.4787 51.9143 27.694 50.8943 27.898C50.3049 28.034 49.7043 28.136 49.0923 28.204C48.5029 28.2947 47.9023 28.34 47.2903 28.34C45.4769 28.34 43.8449 27.9773 42.3943 27.252C40.9436 26.504 39.8216 25.4613 39.0283 24.124C38.2349 22.764 37.8383 21.2227 37.8383 19.5C37.8383 17.8 38.2236 16.2813 38.9943 14.944C39.7649 13.584 40.8303 12.53 42.1903 11.782C43.5729 11.034 45.1369 10.66 46.8823 10.66C48.6729 10.66 50.2369 11.034 51.5743 11.782C52.9116 12.5073 53.9429 13.5387 54.6683 14.876C55.4163 16.1907 55.8129 17.7207 55.8583 19.466C55.8583 19.5113 55.8583 19.568 55.8583 19.636C55.8583 19.704 55.8583 19.772 55.8583 19.84H42.4283C42.4509 21.5173 42.6549 22.9567 43.0403 24.158C43.4483 25.3593 43.9923 26.266 44.6723 26.878C45.3523 27.49 46.1229 27.796 46.9843 27.796C47.8003 27.796 48.7069 27.5013 49.7043 26.912C50.7243 26.3227 51.5856 25.6087 52.2883 24.77C53.0136 23.9087 53.3763 23.138 53.3763 22.458V21.914H53.9883V29.462H53.3083V27.252ZM51.3023 19.16C51.2796 17.392 51.0869 15.9187 50.7243 14.74C50.3843 13.5387 49.8856 12.6547 49.2283 12.088C48.5936 11.4987 47.8116 11.204 46.8823 11.204C45.9756 11.204 45.1936 11.5213 44.5363 12.156C43.8789 12.768 43.3689 13.6747 43.0063 14.876C42.6436 16.0547 42.4509 17.4827 42.4283 19.16H51.3023ZM63.3739 28.374C61.6512 28.374 60.3139 27.9773 59.3619 27.184C58.4099 26.3907 57.9339 25.3367 57.9339 24.022C57.9339 22.4807 58.5459 21.3247 59.7699 20.554C60.9939 19.7833 62.6825 19.3073 64.8359 19.126C66.1959 19.0127 67.2725 18.8313 68.0659 18.582C68.8819 18.31 69.4825 17.936 69.8679 17.46C70.2759 16.984 70.4799 16.3493 70.4799 15.556C70.4799 14.0827 70.1965 12.9947 69.6299 12.292C69.0632 11.5667 68.2812 11.204 67.2839 11.204C66.5132 11.204 65.6065 11.5213 64.5639 12.156C63.5439 12.768 62.6712 13.516 61.9459 14.4C61.2205 15.284 60.8579 16.0887 60.8579 16.814V17.732H60.2119V9.334H60.8919V11.646C61.5719 11.578 62.1272 11.5213 62.5579 11.476C63.4872 11.204 64.2692 11 64.9039 10.864C65.5612 10.728 66.2525 10.66 66.9779 10.66C69.3352 10.66 71.1712 11.2947 72.4859 12.564C73.8232 13.8107 74.4919 15.5447 74.4919 17.766V27.32H77.3479V28H70.4459V23.988C69.9245 25.416 69.0519 26.504 67.8279 27.252C66.6265 28 65.1419 28.374 63.3739 28.374ZM65.3459 27.218C66.2299 27.218 67.0572 26.946 67.8279 26.402C68.6212 25.858 69.2559 25.0873 69.7319 24.09C70.2079 23.07 70.4459 21.914 70.4459 20.622V17.698C70.1739 18.106 69.7432 18.4573 69.1539 18.752C68.5872 19.0467 67.8619 19.262 66.9779 19.398C65.3685 19.6247 64.1785 20.0893 63.4079 20.792C62.6599 21.472 62.2859 22.4467 62.2859 23.716C62.2859 24.7813 62.5692 25.6313 63.1359 26.266C63.7252 26.9007 64.4619 27.218 65.3459 27.218ZM86.0814 28.34C84.2454 28.34 82.806 27.83 81.7634 26.81C80.7207 25.79 80.1994 24.3847 80.1994 22.594V11.68H76.9694V11H79.8934C81.0267 11 81.9674 10.6713 82.7154 10.014C83.486 9.334 83.8714 8.30267 83.8714 6.92V5.492H84.5514V11H90.7734V11.68H84.5514V23.784C84.5514 24.9627 84.846 25.858 85.4354 26.47C86.0247 27.082 86.8407 27.388 87.8834 27.388C88.45 27.388 89.0507 27.252 89.6854 26.98C90.3427 26.708 90.8187 26.3907 91.1134 26.028V26.912C90.6374 27.32 89.946 27.66 89.0394 27.932C88.1327 28.204 87.1467 28.34 86.0814 28.34ZM91.4427 27.32H94.8087V11.68H91.4427V11H99.1607V27.32H102.527V28H91.4427V27.32ZM94.1287 2.67H99.7047L97.0867 9.062H96.7467L94.1287 2.67ZM102.927 11.68H100.411V11H111.393V11.68H107.619L113.195 25.008L118.737 11.68H114.351V11H121.967V11.68H119.485L112.719 28H109.761L102.927 11.68ZM125.797 28.374C124.074 28.374 122.737 27.9773 121.785 27.184C120.833 26.3907 120.357 25.3367 120.357 24.022C120.357 22.4807 120.969 21.3247 122.193 20.554C123.417 19.7833 125.106 19.3073 127.259 19.126C128.619 19.0127 129.696 18.8313 130.489 18.582C131.305 18.31 131.906 17.936 132.291 17.46C132.699 16.984 132.903 16.3493 132.903 15.556C132.903 14.0827 132.62 12.9947 132.053 12.292C131.486 11.5667 130.704 11.204 129.707 11.204C128.936 11.204 128.03 11.5213 126.987 12.156C125.967 12.768 125.094 13.516 124.369 14.4C123.644 15.284 123.281 16.0887 123.281 16.814V17.732H122.635V9.334H123.315V11.646C123.995 11.578 124.55 11.5213 124.981 11.476C125.91 11.204 126.692 11 127.327 10.864C127.984 10.728 128.676 10.66 129.401 10.66C131.758 10.66 133.594 11.2947 134.909 12.564C136.246 13.8107 136.915 15.5447 136.915 17.766V27.32H139.771V28H132.869V23.988C132.348 25.416 131.475 26.504 130.251 27.252C129.05 28 127.565 28.374 125.797 28.374ZM127.769 27.218C128.653 27.218 129.48 26.946 130.251 26.402C131.044 25.858 131.679 25.0873 132.155 24.09C132.631 23.07 132.869 21.914 132.869 20.622V17.698C132.597 18.106 132.166 18.4573 131.577 18.752C131.01 19.0467 130.285 19.262 129.401 19.398C127.792 19.6247 126.602 20.0893 125.831 20.792C125.083 21.472 124.709 22.4467 124.709 23.716C124.709 24.7813 124.992 25.6313 125.559 26.266C126.148 26.9007 126.885 27.218 127.769 27.218Z" fill="#ACADB7"/>
</svg>
