<svg width="128" height="33" viewBox="0 0 128 33" fill="none" xmlns="http://www.w3.org/2000/svg">
<path d="M6.195 25H1.785V0.0799996H6.195V25ZM26.7939 16.285V17.335H13.2839C13.4472 18.875 13.9255 20.0417 14.7189 20.835C15.5355 21.605 16.6205 21.99 17.9739 21.99C19.9805 21.99 21.3572 21.1267 22.1039 19.4H26.3389C25.8722 21.2433 24.8922 22.7133 23.3989 23.81C21.9055 24.8833 20.0855 25.42 17.9389 25.42C15.2555 25.42 13.0855 24.5567 11.4289 22.83C9.7722 21.1033 8.94387 18.8167 8.94387 15.97C8.94387 13.1233 9.76053 10.8367 11.3939 9.11C13.0505 7.38333 15.2089 6.52 17.8689 6.52C20.5989 6.52 22.7689 7.41833 24.3789 9.215C25.9889 11.0117 26.7939 13.3683 26.7939 16.285ZM17.8339 9.95C15.2439 9.95 13.7389 11.385 13.3189 14.255H22.3839C22.1972 12.925 21.7072 11.875 20.9139 11.105C20.1205 10.335 19.0939 9.95 17.8339 9.95ZM45.7105 25H41.3005C41.0905 24.6267 40.9272 23.8917 40.8105 22.795C39.5972 24.545 37.6605 25.42 35.0005 25.42C33.0172 25.42 31.4305 24.9417 30.2405 23.985C29.0739 23.0283 28.4905 21.6983 28.4905 19.995C28.4905 16.705 30.8005 14.8267 35.4205 14.36L38.1505 14.115C39.0605 13.9983 39.7139 13.7883 40.1105 13.485C40.5072 13.1583 40.7055 12.68 40.7055 12.05C40.7055 11.28 40.4489 10.72 39.9355 10.37C39.4455 9.99667 38.6055 9.81 37.4155 9.81C36.1322 9.81 35.2105 10.0317 34.6505 10.475C34.0905 10.895 33.7639 11.63 33.6705 12.68H29.3305C29.5872 8.57333 32.2939 6.52 37.4505 6.52C42.4672 6.52 44.9755 8.32833 44.9755 11.945V21.57C44.9755 23.1567 45.2205 24.3 45.7105 25ZM36.0505 22.27C37.4272 22.27 38.5472 21.8967 39.4105 21.15C40.2739 20.38 40.7055 19.2833 40.7055 17.86V16.215C40.2855 16.5883 39.5972 16.8333 38.6405 16.95L36.2605 17.23C35.0939 17.37 34.2539 17.65 33.7405 18.07C33.2505 18.4667 33.0055 19.05 33.0055 19.82C33.0055 20.59 33.2622 21.1967 33.7755 21.64C34.3122 22.06 35.0705 22.27 36.0505 22.27ZM61.0159 9.425V6.94H65.2859V24.405C65.2859 26.855 64.5043 28.78 62.9409 30.18C61.4009 31.58 59.2076 32.28 56.3609 32.28C53.8409 32.28 51.8576 31.72 50.4109 30.6C48.9876 29.48 48.2059 27.94 48.0659 25.98H52.4059C52.6159 27.9167 53.9576 28.885 56.4309 28.885C57.8776 28.885 58.9743 28.5117 59.7209 27.765C60.4909 27.0183 60.8759 25.9333 60.8759 24.51V22.235C59.5693 24.0317 57.7259 24.93 55.3459 24.93C52.8959 24.93 50.9243 24.0783 49.4309 22.375C47.9376 20.7183 47.1909 18.5017 47.1909 15.725C47.1909 12.925 47.9376 10.6967 49.4309 9.04C50.9009 7.36 52.8609 6.52 55.3109 6.52C57.8543 6.52 59.7559 7.48833 61.0159 9.425ZM56.3259 21.29C57.7959 21.29 58.9393 20.8 59.7559 19.82C60.5726 18.84 60.9809 17.475 60.9809 15.725C60.9809 13.975 60.5726 12.61 59.7559 11.63C58.9393 10.65 57.7959 10.16 56.3259 10.16C54.9026 10.16 53.7709 10.6617 52.9309 11.665C52.1143 12.645 51.7059 14.01 51.7059 15.76C51.7059 17.4867 52.1143 18.84 52.9309 19.82C53.7709 20.8 54.9026 21.29 56.3259 21.29ZM86.4155 15.97C86.4155 18.8167 85.5755 21.1033 83.8955 22.83C82.2155 24.5567 79.9989 25.42 77.2455 25.42C74.4922 25.42 72.2755 24.5567 70.5955 22.83C68.8922 21.1267 68.0405 18.84 68.0405 15.97C68.0405 13.1 68.8922 10.8133 70.5955 9.11C72.2755 7.38333 74.4922 6.52 77.2455 6.52C79.9989 6.52 82.2155 7.37167 83.8955 9.075C85.5755 10.7783 86.4155 13.0767 86.4155 15.97ZM73.7805 20.275C74.6205 21.2783 75.7755 21.78 77.2455 21.78C78.7155 21.78 79.8589 21.2783 80.6755 20.275C81.5155 19.2483 81.9355 17.8133 81.9355 15.97C81.9355 14.1267 81.5155 12.7033 80.6755 11.7C79.8589 10.6733 78.7155 10.16 77.2455 10.16C75.7755 10.16 74.6205 10.6617 73.7805 11.665C72.9639 12.6683 72.5555 14.1033 72.5555 15.97C72.5555 17.8367 72.9639 19.2717 73.7805 20.275ZM99.0875 6.52C101.047 6.52 102.587 7.09167 103.707 8.235C104.851 9.355 105.422 10.9533 105.422 13.03V25H101.012V13.765C101.012 11.4783 99.8808 10.335 97.6175 10.335C96.4975 10.335 95.5408 10.7433 94.7475 11.56C93.9775 12.3533 93.5925 13.4617 93.5925 14.885V25H89.1825V6.94H93.4525V9.53C94.8291 7.52333 96.7075 6.52 99.0875 6.52ZM126.052 16.285V17.335H112.542C112.705 18.875 113.183 20.0417 113.977 20.835C114.793 21.605 115.878 21.99 117.232 21.99C119.238 21.99 120.615 21.1267 121.362 19.4H125.597C125.13 21.2433 124.15 22.7133 122.657 23.81C121.163 24.8833 119.343 25.42 117.197 25.42C114.513 25.42 112.343 24.5567 110.687 22.83C109.03 21.1033 108.202 18.8167 108.202 15.97C108.202 13.1233 109.018 10.8367 110.652 9.11C112.308 7.38333 114.467 6.52 117.127 6.52C119.857 6.52 122.027 7.41833 123.637 9.215C125.247 11.0117 126.052 13.3683 126.052 16.285ZM117.092 9.95C114.502 9.95 112.997 11.385 112.577 14.255H121.642C121.455 12.925 120.965 11.875 120.172 11.105C119.378 10.335 118.352 9.95 117.092 9.95Z" fill="#ACADB7"/>
</svg>
