<svg width="129" height="34" viewBox="0 0 129 34" fill="none" xmlns="http://www.w3.org/2000/svg">
<path d="M35.133 22.897H41.803L41.252 26H30.493L34.089 5.758H38.149L35.133 22.897ZM60.6525 9.934L57.8105 26H53.7505L54.0985 23.97C53.4799 24.666 52.7162 25.217 51.8075 25.623C50.8989 26.0097 49.9419 26.203 48.9365 26.203C47.2739 26.203 45.9592 25.7583 44.9925 24.869C44.0259 23.9603 43.5425 22.6747 43.5425 21.012C43.5425 20.3933 43.5909 19.8423 43.6875 19.359L45.3405 9.934H49.4005L47.8345 18.779C47.7765 19.127 47.7475 19.4653 47.7475 19.794C47.7475 20.7413 48.0085 21.476 48.5305 21.998C49.0525 22.5007 49.7872 22.752 50.7345 22.752C51.8365 22.752 52.7742 22.4137 53.5475 21.737C54.3209 21.041 54.8139 20.055 55.0265 18.779L56.5925 9.934H60.6525ZM72.4304 9.702C74.0931 9.702 75.3981 10.1563 76.3454 11.065C77.3121 11.9543 77.7954 13.2303 77.7954 14.893C77.7954 15.5117 77.7471 16.0723 77.6504 16.575L75.9684 26H71.9374L73.5034 17.126C73.5614 16.778 73.5904 16.4397 73.5904 16.111C73.5904 15.1443 73.3294 14.4097 72.8074 13.907C72.3047 13.4043 71.5797 13.153 70.6324 13.153C69.5497 13.153 68.6217 13.4817 67.8484 14.139C67.0944 14.777 66.5917 15.705 66.3404 16.923L64.7454 26H60.6564L63.4984 9.934H67.5874L67.2394 11.906C67.8967 11.2293 68.6797 10.6977 69.5884 10.311C70.4971 9.905 71.4444 9.702 72.4304 9.702ZM83.3093 22.897H89.9793L89.4283 26H78.6693L82.2653 5.758H86.3253L83.3093 22.897ZM91.2258 17.909C91.5158 16.285 92.0861 14.8447 92.9368 13.588C93.8068 12.3313 94.8605 11.3647 96.0978 10.688C97.3351 10.0113 98.6401 9.673 100.013 9.673C101.211 9.673 102.217 9.91467 103.029 10.398C103.86 10.8813 104.469 11.4903 104.856 12.225L105.262 9.934H109.351L106.509 26H102.42L102.855 23.651C102.217 24.405 101.385 25.0333 100.361 25.536C99.3555 26.0193 98.2535 26.261 97.0548 26.261C95.8755 26.261 94.8315 26 93.9228 25.478C93.0141 24.9367 92.3085 24.1827 91.8058 23.216C91.3031 22.23 91.0518 21.0893 91.0518 19.794C91.0518 19.1947 91.1098 18.5663 91.2258 17.909ZM103.841 17.967C103.918 17.4643 103.957 17.097 103.957 16.865C103.957 15.7243 103.618 14.835 102.942 14.197C102.284 13.559 101.453 13.24 100.448 13.24C99.6938 13.24 98.9591 13.4237 98.2438 13.791C97.5478 14.1583 96.9388 14.6997 96.4168 15.415C95.8948 16.111 95.5468 16.9423 95.3728 17.909C95.3148 18.2763 95.2858 18.6243 95.2858 18.953C95.2858 20.113 95.6145 21.0313 96.2718 21.708C96.9291 22.3653 97.7605 22.694 98.7658 22.694C99.5198 22.694 100.254 22.5103 100.97 22.143C101.685 21.7563 102.294 21.2053 102.797 20.49C103.319 19.7747 103.667 18.9337 103.841 17.967ZM115.839 12.254C116.496 11.5193 117.318 10.9103 118.304 10.427C119.309 9.92433 120.402 9.673 121.581 9.673C122.78 9.673 123.833 9.934 124.742 10.456C125.67 10.9587 126.385 11.6933 126.888 12.66C127.391 13.6267 127.642 14.7577 127.642 16.053C127.642 16.6523 127.584 17.271 127.468 17.909C127.178 19.5523 126.598 21.012 125.728 22.288C124.858 23.5447 123.804 24.521 122.567 25.217C121.33 25.913 120.034 26.261 118.681 26.261C117.502 26.261 116.496 26.0193 115.665 25.536C114.853 25.0527 114.234 24.4437 113.809 23.709L112.069 33.656H107.98L112.156 9.934H116.245L115.839 12.254ZM123.321 17.909C123.379 17.5223 123.408 17.1743 123.408 16.865C123.408 15.7243 123.079 14.835 122.422 14.197C121.765 13.559 120.924 13.24 119.899 13.24C119.164 13.24 118.439 13.4333 117.724 13.82C117.009 14.1873 116.39 14.7287 115.868 15.444C115.346 16.1593 114.998 17.0003 114.824 17.967C114.747 18.4697 114.708 18.837 114.708 19.069C114.708 20.2097 115.037 21.099 115.694 21.737C116.371 22.375 117.212 22.694 118.217 22.694C118.971 22.694 119.706 22.5007 120.421 22.114C121.136 21.7273 121.755 21.1763 122.277 20.461C122.799 19.7457 123.147 18.895 123.321 17.909Z" fill="#ACADB7"/>
<path d="M6.92871 0.494629L14.1426 1.70293L11.9261 14.9358L24.4554 17.0344L23.2086 24.4779L9.38303 22.1622C6.11485 21.6148 3.90923 18.5216 4.45664 15.2534L6.92871 0.494629Z" fill="#ACADB7" fill-opacity="0.47"/>
<path d="M3.68848 1.71265L10.9023 2.92095L8.54168 17.0145L21.071 19.1131L19.7431 27.0408L5.91754 24.725C2.64936 24.1776 0.443745 21.0845 0.991157 17.8163L3.68848 1.71265Z" fill="#ACADB7" fill-opacity="0.8"/>
</svg>
