<svg width="168" height="31" viewBox="0 0 168 31" fill="none" xmlns="http://www.w3.org/2000/svg">
<path d="M18.9 14.5667L28 5.9V23.2333L22.8 18.9M23.6667 2L15 10.6667L6.76667 2M23.6667 28L2 5.9V23.2333L5.9 19.3333M11.1 23.2333L5.9 28" stroke="#ACADB7" stroke-width="3" stroke-linecap="round"/>
<path d="M44.386 4.246V10.725C44.9233 8.65833 45.7397 7.08767 46.835 6.013C47.9303 4.93833 49.098 4.401 50.338 4.401C51.4127 4.401 52.2187 4.742 52.756 5.424C53.2933 6.106 53.5827 7.005 53.624 8.121V10.756C54.1407 8.68933 54.9467 7.11867 56.042 6.044C57.1373 4.94867 58.305 4.401 59.545 4.401C60.6197 4.401 61.436 4.75233 61.994 5.455C62.5727 6.137 62.862 7.02567 62.862 8.121V23.869C62.862 24.303 62.955 24.6647 63.141 24.954C63.3477 25.2227 63.637 25.357 64.009 25.357C64.319 25.357 64.629 25.264 64.939 25.078C65.2697 24.8713 65.559 24.613 65.807 24.303L66.458 24.923C65.5073 26.4523 64.164 27.217 62.428 27.217C61.3327 27.217 60.4853 26.876 59.886 26.194C59.2867 25.512 58.987 24.4787 58.987 23.094V8.927C58.987 7.27367 58.584 6.447 57.778 6.447C57.158 6.447 56.5173 6.943 55.856 7.935C55.2153 8.927 54.678 10.1877 54.244 11.717C53.8307 13.2257 53.624 14.693 53.624 16.119V26.287L49.749 27.558V8.927C49.749 7.27367 49.3667 6.447 48.602 6.447C47.982 6.447 47.3413 6.943 46.68 7.935C46.0187 8.927 45.471 10.1877 45.037 11.717C44.603 13.2257 44.386 14.693 44.386 16.119V26.287L40.542 27.558V5.517L44.386 4.246ZM82.9931 6.013C80.7818 6.30233 78.7668 7.07733 76.9481 8.338C75.1294 9.59867 73.7034 11.19 72.6701 13.112C71.6368 15.034 71.1201 17.08 71.1201 19.25C71.1201 21.172 71.4301 22.66 72.0501 23.714C72.6701 24.768 73.5174 25.295 74.5921 25.295C75.5841 25.295 76.5348 24.5097 77.4441 22.939C78.3741 21.3477 79.1181 19.2603 79.6761 16.677C80.2341 14.0937 80.5131 11.407 80.5131 8.617L84.4191 7.346V23.869C84.4191 24.303 84.5224 24.6647 84.7291 24.954C84.9358 25.2227 85.2044 25.357 85.5351 25.357C85.8451 25.357 86.1551 25.264 86.4651 25.078C86.7958 24.892 87.0748 24.6337 87.3021 24.303L87.9531 24.923C87.0231 26.4523 85.6901 27.217 83.9541 27.217C82.8588 27.217 82.0114 26.876 81.4121 26.194C80.8128 25.4913 80.5131 24.458 80.5131 23.094V18.878H80.2961C79.6968 21.6887 78.7978 23.7967 77.5991 25.202C76.4004 26.6073 74.9331 27.31 73.1971 27.31C71.3164 27.31 69.8284 26.6693 68.7331 25.388C67.6378 24.1067 67.0901 22.3397 67.0901 20.087C67.0901 17.4417 67.8031 14.972 69.2291 12.678C70.6758 10.3633 72.6081 8.50333 75.0261 7.098C77.4648 5.672 80.1204 4.90733 82.9931 4.804V6.013ZM99.9981 4.432C102.065 4.432 103.728 5.00033 104.989 6.137C106.27 7.253 106.911 8.803 106.911 10.787C106.911 12.151 106.539 13.4427 105.795 14.662C105.072 15.8607 104.08 16.9043 102.819 17.793C101.579 18.6817 100.205 19.343 98.6961 19.777L101.951 23.838C102.447 24.4373 103.026 24.737 103.687 24.737C104.514 24.737 105.495 24.1687 106.632 23.032L107.283 23.621C106.539 24.675 105.702 25.5637 104.772 26.287C103.842 27.0103 102.881 27.372 101.889 27.372C101.207 27.372 100.577 27.1963 99.9981 26.845C99.4401 26.4937 98.8097 25.8633 98.1071 24.954L94.4801 20.273L94.6661 19.405C96.0714 19.219 97.4044 18.7747 98.6651 18.072C99.9464 17.3487 100.98 16.4187 101.765 15.282C102.571 14.1247 102.974 12.8227 102.974 11.376C102.974 9.86733 102.54 8.66867 101.672 7.78C100.825 6.89133 99.5331 6.447 97.7971 6.447C96.3504 6.447 94.8624 6.788 93.3331 7.47C91.8244 8.152 90.4501 9.04067 89.2101 10.136L88.4041 9.268C89.9541 7.842 91.7211 6.68467 93.7051 5.796C95.6891 4.88667 97.7867 4.432 99.9981 4.432ZM94.1701 26.287L90.4191 27.589V10.012L94.1701 8.772V26.287ZM129.841 28.023C129.448 28.6017 128.952 29.0873 128.353 29.48C127.774 29.8933 127.092 30.1 126.307 30.1C125.336 30.1 124.499 29.8933 123.796 29.48C123.093 29.0667 122.308 28.302 121.44 27.186C120.799 27.3307 120.086 27.403 119.301 27.403C117.276 27.403 115.478 26.8553 113.907 25.76C112.336 24.6647 111.127 23.2387 110.28 21.482C109.433 19.7253 109.009 17.886 109.009 15.964C109.009 13.9593 109.412 12.0787 110.218 10.322C111.024 8.56533 112.202 7.14967 113.752 6.075C115.302 5.00033 117.152 4.463 119.301 4.463C121.326 4.463 123.114 5.01067 124.664 6.106C126.214 7.20133 127.402 8.63767 128.229 10.415C129.076 12.1717 129.5 14.0213 129.5 15.964C129.5 17.9893 129.097 19.8803 128.291 21.637C127.485 23.3937 126.328 24.7783 124.819 25.791C125.418 26.5557 125.945 27.093 126.4 27.403C126.855 27.7337 127.32 27.899 127.795 27.899C128.332 27.899 128.818 27.7233 129.252 27.372L129.841 28.023ZM118.154 6.199C116.914 6.199 115.891 6.59167 115.085 7.377C114.3 8.14167 113.731 9.113 113.38 10.291C113.029 11.469 112.853 12.678 112.853 13.918C112.853 15.158 112.977 16.429 113.225 17.731C113.494 19.0123 113.897 20.1903 114.434 21.265C115.323 20.211 116.377 19.684 117.596 19.684C118.34 19.684 118.991 19.808 119.549 20.056C120.128 20.2833 120.696 20.6863 121.254 21.265C121.833 21.8437 122.504 22.6703 123.269 23.745C123.517 24.055 123.631 24.1997 123.61 24.179C124.292 23.435 124.798 22.4843 125.129 21.327C125.48 20.149 125.656 18.971 125.656 17.793C125.656 16.057 125.387 14.3003 124.85 12.523C124.333 10.725 123.507 9.22667 122.37 8.028C121.254 6.80867 119.849 6.199 118.154 6.199ZM114.93 22.195C116.273 24.3857 118.051 25.512 120.262 25.574C119.27 24.1687 118.474 23.2077 117.875 22.691C117.296 22.1537 116.697 21.885 116.077 21.885C115.622 21.885 115.24 21.9883 114.93 22.195ZM147.277 23.869C147.277 24.303 147.37 24.6647 147.556 24.954C147.742 25.2227 148.021 25.357 148.393 25.357C148.703 25.357 149.013 25.264 149.323 25.078C149.653 24.8713 149.943 24.613 150.191 24.303L150.842 24.923C149.932 26.4523 148.589 27.217 146.812 27.217C145.778 27.217 144.952 26.876 144.332 26.194C143.712 25.512 143.402 24.5407 143.402 23.28V21.947C142.224 25.5223 140.167 27.31 137.233 27.31C135.91 27.31 134.908 26.8863 134.226 26.039C133.564 25.171 133.234 24.0963 133.234 22.815V5.734L137.109 4.463V21.823C137.109 22.5877 137.129 23.2077 137.171 23.683C137.233 24.1583 137.388 24.582 137.636 24.954C137.904 25.326 138.318 25.512 138.876 25.512C139.868 25.512 140.694 24.9747 141.356 23.9C142.038 22.8047 142.544 21.544 142.875 20.118C143.226 18.6713 143.402 17.4727 143.402 16.522V5.703L147.277 4.463V23.869ZM161.901 4.587C162.81 4.587 163.668 4.773 164.474 5.145C165.28 5.517 165.962 6.044 166.52 6.726L163.792 8.462C162.862 6.87067 161.725 6.075 160.382 6.075C159.803 6.075 159.245 6.21967 158.708 6.509C158.17 6.79833 157.726 7.21167 157.375 7.749C157.044 8.26567 156.879 8.84433 156.879 9.485C156.879 10.5597 157.251 11.438 157.995 12.12C158.739 12.802 159.627 13.143 160.661 13.143C161.363 13.143 161.963 13.0397 162.459 12.833L162.738 13.825C160.878 14.4037 159.266 15.2717 157.902 16.429C156.538 17.5863 155.856 19.0123 155.856 20.707C155.856 21.885 156.176 22.8563 156.817 23.621C157.478 24.3857 158.356 24.768 159.452 24.768C160.919 24.768 162.314 24.334 163.637 23.466C164.959 22.5773 165.941 21.544 166.582 20.366L167.574 21.172C166.561 22.9287 165.187 24.396 163.451 25.574C161.735 26.752 159.875 27.341 157.871 27.341C155.928 27.341 154.378 26.8347 153.221 25.822C152.063 24.7887 151.485 23.435 151.485 21.761C151.485 20.3143 152.022 19.0123 153.097 17.855C154.192 16.677 155.525 15.716 157.096 14.972C156.145 14.7033 155.37 14.1867 154.771 13.422C154.192 12.6573 153.903 11.7997 153.903 10.849C153.903 9.58833 154.295 8.48267 155.081 7.532C155.866 6.58133 156.868 5.858 158.088 5.362C159.328 4.84533 160.599 4.587 161.901 4.587Z" fill="#ACADB7"/>
</svg>
