<svg width="64" height="59" viewBox="0 0 64 59" fill="none" xmlns="http://www.w3.org/2000/svg">
<path d="M15.0354 12.1026V1H23.2126M15.0354 12.1026H12.1063V21.6364M15.0354 12.1026H26.2638M48.7205 12.1026V1H46.0354M48.7205 12.1026H51.2835V21.6364M48.7205 12.1026H37.4921M12.1063 21.6364L31.7559 16.2057M12.1063 21.6364L9.17717 22.7225V27.429M51.2835 21.6364L31.7559 16.2057M51.2835 21.6364L54.4567 22.7225V27.429M31.7559 16.2057V20.1882M9.17717 27.429L6.00394 28.6358C6.57349 34.1871 9.73858 46.2069 17.8425 49.8756M9.17717 27.429L31.7559 20.1882M17.8425 49.8756C13.815 47.5827 7.59055 54.2201 6.00394 52.1685C4.73465 50.5273 2.13911 49.9561 1 49.8756M17.8425 49.8756C18.9409 51.1226 21.6504 53.4719 23.7008 52.8926C26.2638 52.1685 29.9252 48.7895 31.7559 48.7895M54.4567 27.429L57.0197 28.6358C56.1654 34.0665 52.7724 45.9173 46.0354 49.8756M54.4567 27.429L31.7559 20.1882M46.0354 49.8756C44.2454 50.8813 39.811 52.5306 36.3937 51.0824C32.9764 49.6343 31.878 48.9504 31.7559 48.7895M46.0354 49.8756C47.2966 49.6745 50.4291 49.6343 52.8701 51.0824C55.311 52.5306 60.6404 50.1572 63 48.7895M31.7559 48.7895V20.1882M26.2638 1V12.1026M26.2638 1H23.2126M26.2638 1H30.0472M26.2638 12.1026H37.4921M37.4921 1V12.1026M37.4921 1H33.7697M37.4921 1H40.6654M18.5748 1.12068V5.70654H23.2126V1M30.0472 1V5.70654H33.5866L33.7697 1M30.0472 1H33.7697M40.6654 1V5.70654H46.0354V1M40.6654 1H46.0354M1 53.8581C2.42388 54.2201 5.6622 55.4511 7.22441 57.4785C9.17717 60.0128 15.4016 52.4099 17.8425 53.8581C20.2835 55.3062 21.5039 58.2026 23.7008 57.4785C25.8976 56.7544 28.8268 52.5306 31.7559 53.8581C34.685 55.1856 37.9803 59.168 43.3504 55.6683C48.7205 52.1685 51.8937 57.4785 54.4567 57.4785C57.0197 57.4785 61.6575 53.8581 63 53.8581" stroke="#FF471D"/>
</svg>
