<svg width="89" height="26" viewBox="0 0 89 26" fill="none" xmlns="http://www.w3.org/2000/svg">
<path d="M7.826 25.204C5.31 25.204 3.38333 24.5467 2.046 23.232C0.731333 21.8947 0.0740001 19.866 0.0740001 17.146V7.082H3.576V16.942C3.576 18.0073 3.72333 18.9253 4.018 19.696C4.33533 20.4667 4.81133 21.056 5.446 21.464C6.08067 21.872 6.88533 22.076 7.86 22.076C8.88 22.076 9.696 21.872 10.308 21.464C10.9427 21.0333 11.396 20.4327 11.668 19.662C11.9627 18.8913 12.11 17.9847 12.11 16.942V7.082H15.612V17.146C15.612 19.9113 14.932 21.9513 13.572 23.266C12.2347 24.558 10.3193 25.204 7.826 25.204ZM19.8315 25V7.082H23.1295L23.2995 9.666C23.7528 8.96333 24.2741 8.408 24.8635 8C25.4528 7.592 26.0988 7.29733 26.8015 7.116C27.5041 6.93467 28.2408 6.844 29.0115 6.844C29.2155 6.844 29.4081 6.844 29.5895 6.844C29.7708 6.844 29.9408 6.844 30.0995 6.844V10.21H29.0115C27.7195 10.21 26.6428 10.4707 25.7815 10.992C24.9428 11.5133 24.3195 12.2387 23.9115 13.168C23.5261 14.0973 23.3335 15.1627 23.3335 16.364V25H19.8315ZM41.7915 25.204C41.0435 25.204 40.3295 25.1247 39.6495 24.966C38.9921 24.8073 38.3688 24.558 37.7795 24.218C37.2128 23.8553 36.7028 23.4133 36.2495 22.892L36.1475 25H32.7475V0.961999H36.2495V9.496C36.8841 8.63467 37.7341 7.97733 38.7995 7.524C39.8648 7.07067 40.9641 6.844 42.0975 6.844C43.8881 6.844 45.3615 7.252 46.5175 8.068C47.6735 8.86133 48.5235 9.94933 49.0675 11.332C49.6341 12.692 49.9175 14.2447 49.9175 15.99C49.9175 17.7127 49.6228 19.2767 49.0335 20.682C48.4441 22.0647 47.5488 23.164 46.3475 23.98C45.1688 24.796 43.6501 25.204 41.7915 25.204ZM41.4175 22.11C42.6641 22.11 43.6501 21.8267 44.3755 21.26C45.1008 20.6933 45.6221 19.9453 45.9395 19.016C46.2568 18.0867 46.4155 17.0893 46.4155 16.024C46.4155 14.9133 46.2455 13.9047 45.9055 12.998C45.5881 12.0913 45.0555 11.366 44.3075 10.822C43.5821 10.278 42.6075 10.006 41.3835 10.006C40.2728 10.006 39.3321 10.312 38.5615 10.924C37.7908 11.5133 37.2015 12.2727 36.7935 13.202C36.4081 14.1313 36.2155 15.0947 36.2155 16.092C36.2155 17.1347 36.3855 18.1207 36.7255 19.05C37.0881 19.9567 37.6548 20.6933 38.4255 21.26C39.1961 21.8267 40.1935 22.11 41.4175 22.11ZM59.2446 25.204C58.4286 25.204 57.6353 25.102 56.8646 24.898C56.1166 24.6713 55.448 24.3427 54.8586 23.912C54.2693 23.4587 53.7933 22.9033 53.4306 22.246C53.0906 21.566 52.9206 20.7727 52.9206 19.866C52.9206 18.778 53.1246 17.8827 53.5326 17.18C53.9633 16.4547 54.53 15.8993 55.2326 15.514C55.9353 15.106 56.74 14.8227 57.6466 14.664C58.576 14.4827 59.5393 14.392 60.5366 14.392H64.9226C64.9226 13.508 64.7866 12.7373 64.5146 12.08C64.2426 11.4 63.812 10.8787 63.2226 10.516C62.656 10.1307 61.8966 9.938 60.9446 9.938C60.378 9.938 59.834 10.006 59.3126 10.142C58.814 10.2553 58.3833 10.448 58.0206 10.72C57.658 10.992 57.4086 11.3547 57.2726 11.808H53.6006C53.7366 10.9467 54.0426 10.21 54.5186 9.598C54.9946 8.96333 55.584 8.442 56.2866 8.034C56.9893 7.626 57.7373 7.33133 58.5306 7.15C59.3466 6.946 60.174 6.844 61.0126 6.844C63.5966 6.844 65.4553 7.60333 66.5886 9.122C67.7446 10.618 68.3226 12.6807 68.3226 15.31V25H65.2966L65.1606 22.722C64.6393 23.4247 64.016 23.9573 63.2906 24.32C62.588 24.6827 61.8853 24.9207 61.1826 25.034C60.48 25.1473 59.834 25.204 59.2446 25.204ZM59.7886 22.246C60.8086 22.246 61.704 22.076 62.4746 21.736C63.2453 21.3733 63.846 20.8633 64.2766 20.206C64.7073 19.526 64.9226 18.7327 64.9226 17.826V17.078H61.7266C61.0693 17.078 60.4233 17.1007 59.7886 17.146C59.1766 17.1687 58.61 17.2593 58.0886 17.418C57.59 17.554 57.182 17.792 56.8646 18.132C56.57 18.472 56.4226 18.9593 56.4226 19.594C56.4226 20.206 56.5813 20.7047 56.8986 21.09C57.216 21.4753 57.6353 21.77 58.1566 21.974C58.678 22.1553 59.222 22.246 59.7886 22.246ZM72.5248 25V7.082H75.8568L76.0268 9.598C76.4801 8.94067 77.0241 8.41933 77.6588 8.034C78.2935 7.626 78.9735 7.33133 79.6988 7.15C80.4241 6.946 81.1268 6.844 81.8068 6.844C83.5295 6.844 84.8781 7.218 85.8528 7.966C86.8501 8.69133 87.5528 9.67733 87.9608 10.924C88.3915 12.148 88.6068 13.542 88.6068 15.106V25H85.0708V15.82C85.0708 15.0947 85.0255 14.3807 84.9348 13.678C84.8441 12.9753 84.6515 12.352 84.3568 11.808C84.0848 11.2413 83.6881 10.7993 83.1668 10.482C82.6455 10.142 81.9428 9.972 81.0588 9.972C79.9708 9.972 79.0528 10.2667 78.3048 10.856C77.5568 11.4453 76.9901 12.2387 76.6048 13.236C76.2195 14.2333 76.0268 15.3553 76.0268 16.602V25H72.5248Z" fill="#ACADB7"/>
</svg>
