<svg width="235" height="102" viewBox="0 0 235 102" fill="none" xmlns="http://www.w3.org/2000/svg">
<path d="M1.74023 46.8433C-0.199955 55.4825 17.6754 73.5414 26.8556 81.491L71.4643 65.4188L62.8071 64.2845C37.4532 64.0355 19.8866 49.0276 14.2725 41.5548C10.9035 39.718 3.68042 38.2041 1.74023 46.8433Z" fill="#FF471D"/>
<path d="M161.538 41.7311L118.819 56.6071C119.342 61.7807 118.018 66.9067 116.494 68.401L106.133 100.105L116.328 96.5607C122.414 93.1307 151.707 58.8075 161.538 41.7311Z" fill="#FF471D"/>
<path d="M119.331 26.9046L112.272 31.6393L119.891 37.4016L139.135 28.9213L119.331 26.9046Z" fill="#FF471D"/>
<path d="M32.5299 82.927L53.4174 75.7881L29.3111 95.8165L24.3365 96.3199L32.5299 82.927Z" fill="#FF471D"/>
<path d="M199.769 17.2583L198.321 12.8818C202.059 10.0914 210.323 8.98716 213.988 8.78388L213.345 12.3668L208.868 12.8198L205.09 15.2123L199.769 17.2583Z" fill="#FF471D"/>
<path d="M173.365 29.4784L172.962 25.4987L176.444 25.1464L176.847 29.1261C176.928 29.922 174.559 29.6926 173.365 29.4784Z" fill="#FF471D"/>
<path d="M160.034 31.8323L157.049 32.1343L157.553 37.1089L160.537 36.8069L160.034 31.8323Z" fill="#FF471D"/>
<path d="M144.121 38.4678L141.137 38.7698L141.539 42.7495L144.625 43.4424L144.121 38.4678Z" fill="#FF471D"/>
<path d="M128.706 45.0531L125.721 45.3551L126.124 49.3348L129.209 50.0277L128.706 45.0531Z" fill="#FF471D"/>
<path d="M113.29 51.6383L109.808 51.9907L110.261 56.4678L113.743 56.1155L113.29 51.6383Z" fill="#FF471D"/>
<path d="M97.9254 58.7211L94.3425 58.0785L94.8459 63.053L98.3281 62.7007L97.9254 58.7211Z" fill="#FF471D"/>
<path d="M82.4094 64.3114L78.4297 64.714L78.8323 68.6937L82.812 68.2911L82.4094 64.3114Z" fill="#FF471D"/>
<path d="M71.4643 65.4188L26.4085 82.0388C23.6955 83.0395 20.8068 87.9337 19.7016 90.2557L39.8517 90.7297C42.7792 90.6921 47.0776 89.9812 52.2217 88.8147M71.4643 65.4188L61.1628 62.9432C102.237 45.0509 185.34 8.76768 189.159 6.77314C193.932 4.27998 216.261 -3.50739 227.916 7.37467M71.4643 65.4188L62.8071 64.2845C37.4532 64.0355 19.8866 49.0276 14.2725 41.5548C10.9035 39.718 3.68042 38.2041 1.74023 46.8433C-0.199955 55.4825 17.6754 73.5414 26.8556 81.491L71.4643 65.4188ZM227.916 7.37467L233.148 14.3836C229.638 19.4292 208.406 35.0794 151.555 57.3152L162.035 41.6809M227.916 7.37467C224.697 11.3188 182.654 31.8889 162.035 41.6809M162.035 41.6809L118.868 57.1046C119.138 57.8972 119.394 59.1278 119.438 60.5648M52.2217 88.8147C71.0661 84.5414 101.26 74.1534 116.991 68.3508C118.998 65.8914 119.51 62.9451 119.438 60.5648M52.2217 88.8147L119.438 60.5648M118.819 56.6071L161.538 41.7311C151.707 58.8075 122.414 93.1307 116.328 96.5607L106.133 100.105L116.494 68.401C118.018 66.9067 119.342 61.7807 118.819 56.6071ZM112.272 31.6393L119.331 26.9046L139.135 28.9213L119.891 37.4016L112.272 31.6393ZM53.4174 75.7881L32.5299 82.927L24.3365 96.3199L29.3111 95.8165L53.4174 75.7881ZM198.321 12.8818L199.769 17.2583L205.09 15.2123L208.868 12.8198L213.345 12.3668L213.988 8.78388C210.323 8.98716 202.059 10.0914 198.321 12.8818ZM172.962 25.4987L173.365 29.4784C174.559 29.6926 176.928 29.922 176.847 29.1261L176.444 25.1464L172.962 25.4987ZM157.049 32.1343L160.034 31.8323L160.537 36.8069L157.553 37.1089L157.049 32.1343ZM141.137 38.7698L144.121 38.4678L144.625 43.4424L141.539 42.7495L141.137 38.7698ZM125.721 45.3551L128.706 45.0531L129.209 50.0277L126.124 49.3348L125.721 45.3551ZM109.808 51.9907L113.29 51.6383L113.743 56.1155L110.261 56.4678L109.808 51.9907ZM94.3425 58.0785L97.9254 58.7211L98.3281 62.7007L94.8459 63.053L94.3425 58.0785ZM78.4297 64.714L82.4094 64.3114L82.812 68.2911L78.8323 68.6937L78.4297 64.714Z" stroke="#FF471D" stroke-width="2"/>
</svg>
