<svg width="145" height="50" viewBox="0 0 145 50" fill="none" xmlns="http://www.w3.org/2000/svg">
<path d="M145 50H7.15256e-06V0.568179H145H106.601L145 50Z" fill="#FF471D"/>
<path d="M16.81 15L8 20.1077L10.1955 21.3425L19.0055 16.2348L16.81 15Z" fill="white"/>
<path d="M23.4527 18.7887L21.2572 17.4977L12.025 22.8861L14.136 24.177L23.4527 18.7887Z" fill="white"/>
<path d="M25.62 30.295V20.1358L23.4808 21.3425V31.4457L25.62 30.295Z" fill="white"/>
<path d="M21.2009 32.8208V22.6335L19.0055 23.8964V34.1118L21.2009 32.8208Z" fill="white"/>
<path d="M16.8944 27.7131L8 22.5774V25.1873L16.8944 30.3231V27.7131Z" fill="white"/>
<path d="M16.8944 32.8489L8 27.7131V30.1828L16.8944 35.3186V32.8489Z" fill="white"/>
<path d="M43.6553 30H35.5479C35.4202 30 35.3018 29.9772 35.1924 29.9316C35.083 29.8861 34.9873 29.8245 34.9053 29.7471C34.8278 29.665 34.7663 29.5693 34.7207 29.46C34.6751 29.3506 34.6523 29.2321 34.6523 29.1045V20.1973H36.4297V28.2227H43.6553V30ZM55.8601 26.0352C55.8601 26.6322 55.7576 27.1813 55.5525 27.6826C55.3474 28.1839 55.0626 28.6169 54.698 28.9814C54.3334 29.346 53.9005 29.6309 53.3992 29.8359C52.9024 30.0365 52.3601 30.1367 51.7722 30.1367H49.366C48.7781 30.1367 48.2335 30.0365 47.7322 29.8359C47.2309 29.6309 46.798 29.346 46.4334 28.9814C46.0688 28.6169 45.7817 28.1839 45.572 27.6826C45.367 27.1813 45.2644 26.6322 45.2644 26.0352V24.1621C45.2644 23.5697 45.367 23.0228 45.572 22.5215C45.7817 22.0156 46.0688 21.5827 46.4334 21.2227C46.798 20.8581 47.2309 20.5732 47.7322 20.3682C48.2335 20.1631 48.7781 20.0605 49.366 20.0605H51.7722C52.3601 20.0605 52.9024 20.1631 53.3992 20.3682C53.9005 20.5732 54.3334 20.8581 54.698 21.2227C55.0626 21.5827 55.3474 22.0156 55.5525 22.5215C55.7576 23.0228 55.8601 23.5697 55.8601 24.1621V26.0352ZM54.0828 24.1621C54.0828 23.8112 54.0258 23.4945 53.9119 23.2119C53.8025 22.9248 53.6453 22.681 53.4402 22.4805C53.2397 22.2754 52.9959 22.1182 52.7088 22.0088C52.4262 21.8949 52.114 21.8379 51.7722 21.8379H49.366C49.0196 21.8379 48.7029 21.8949 48.4158 22.0088C48.1332 22.1182 47.8894 22.2754 47.6844 22.4805C47.4793 22.681 47.3198 22.9248 47.2058 23.2119C47.0965 23.4945 47.0418 23.8112 47.0418 24.1621V26.0352C47.0418 26.3861 47.0965 26.7051 47.2058 26.9922C47.3198 27.2747 47.4793 27.5186 47.6844 27.7236C47.8894 27.9242 48.1332 28.0814 48.4158 28.1953C48.7029 28.3047 49.0196 28.3594 49.366 28.3594H51.7586C52.1049 28.3594 52.4194 28.3047 52.7019 28.1953C52.989 28.0814 53.2351 27.9242 53.4402 27.7236C53.6453 27.5186 53.8025 27.2747 53.9119 26.9922C54.0258 26.7051 54.0828 26.3861 54.0828 26.0352V24.1621ZM68.0513 29.1045C68.0513 29.2321 68.0285 29.3506 67.983 29.46C67.9374 29.5693 67.8736 29.665 67.7916 29.7471C67.7141 29.8245 67.6207 29.8861 67.5113 29.9316C67.4019 29.9772 67.2834 30 67.1558 30H60.7437C60.5796 30 60.4019 29.9818 60.2105 29.9453C60.0236 29.9043 59.8368 29.8428 59.65 29.7607C59.4677 29.6787 59.2922 29.5739 59.1236 29.4463C58.955 29.3141 58.8046 29.1569 58.6724 28.9746C58.5448 28.7878 58.4423 28.5736 58.3648 28.332C58.2873 28.0859 58.2486 27.8102 58.2486 27.5049V22.6924C58.2486 22.5283 58.2668 22.3529 58.3033 22.166C58.3443 21.9746 58.4058 21.7878 58.4878 21.6055C58.5699 21.4186 58.677 21.2409 58.8091 21.0723C58.9413 20.9036 59.0985 20.7555 59.2808 20.6279C59.4677 20.4958 59.6819 20.391 59.9234 20.3135C60.1649 20.236 60.4384 20.1973 60.7437 20.1973H67.9693V21.9746H60.7437C60.5113 21.9746 60.3335 22.0361 60.2105 22.1592C60.0875 22.2822 60.0259 22.4645 60.0259 22.7061V27.5049C60.0259 27.7327 60.0875 27.9105 60.2105 28.0381C60.3381 28.1611 60.5158 28.2227 60.7437 28.2227H66.274V25.9941H61.5435V24.2031H67.1558C67.2834 24.2031 67.4019 24.2282 67.5113 24.2783C67.6207 24.3239 67.7141 24.3877 67.7916 24.4697C67.8736 24.5518 67.9374 24.6475 67.983 24.7568C68.0285 24.8617 68.0513 24.9756 68.0513 25.0986V29.1045ZM72.4564 30H70.679V20.1973H72.4564V30ZM84.1554 21.9746H80.2384V30H78.461V21.9746H74.5372V20.1973H84.1554V21.9746ZM94.2889 25.9941H88.6766V24.2031H94.2889V25.9941ZM95.0887 30H88.6766C88.4305 30 88.1617 29.9567 87.87 29.8701C87.5783 29.7835 87.3072 29.6423 87.0565 29.4463C86.8104 29.2458 86.6031 28.9883 86.4344 28.6738C86.2704 28.3548 86.1884 27.9652 86.1884 27.5049V21.0928C86.1884 20.9697 86.2111 20.8535 86.2567 20.7441C86.3023 20.6348 86.3638 20.5391 86.4413 20.457C86.5233 20.375 86.619 20.3112 86.7284 20.2656C86.8378 20.2201 86.9563 20.1973 87.0839 20.1973H95.0887V21.9746H87.9657V27.5049C87.9657 27.7373 88.0272 27.915 88.1503 28.0381C88.2733 28.1611 88.4533 28.2227 88.6903 28.2227H95.0887V30ZM102.05 23.6973L105.045 20.1973H107.471L103.254 25.1123L107.444 30H105.031L102.05 26.5273L99.0836 30H96.6637L100.847 25.1123L96.65 20.1973H99.0563L102.05 23.6973Z" fill="white"/>
</svg>
