<svg width="240" height="152" viewBox="0 0 240 152" fill="none" xmlns="http://www.w3.org/2000/svg">
<path d="M12.1606 91.0103H1.2425C-0.941281 106.661 12.1614 125.435 18.9857 132.866H205.517L237.363 77.8166C224.625 77.21 198.146 76.3608 194.143 77.8166C190.139 79.2725 188.532 87.219 188.228 91.0103H72.2145M12.1606 91.0103V64.623M12.1606 91.0103H72.2145M12.1606 64.623H1.2425V51.8843H23.0795M12.1606 64.623H72.2145M72.2145 64.623H79.4937V51.8843H64.9352M72.2145 64.623V91.0103M23.0795 51.8843V21.4024H44.0073M23.0795 51.8843H64.9352M64.9352 51.8843V21.4024H44.0073M44.0073 21.4024V0.929443" stroke="#FF471D" stroke-width="2"/>
<path d="M8.06566 148.789C8.79359 144.786 15.3449 136.506 18.5296 132.866H206.881L195.052 148.789C132.42 150.458 7.33774 152.793 8.06566 148.789Z" fill="#FF471D"/>
<path d="M91.3226 89.6454V60.5284H121.804V28.6816H153.196V60.5284H185.498V89.6454H153.196V60.5284H121.804V89.6454H91.3226Z" fill="#FF471D"/>
<path d="M121.804 60.5284H91.3226V89.6454H121.804V60.5284ZM121.804 60.5284H153.196M121.804 60.5284V28.6816H153.196V60.5284M153.196 60.5284V89.6454H185.498V60.5284H153.196ZM18.5296 132.866C15.3449 136.506 8.79359 144.786 8.06566 148.789C7.33774 152.793 132.42 150.458 195.052 148.789L206.881 132.866H18.5296Z" stroke="#FF471D" stroke-width="2"/>
</svg>
