<svg width="162" height="105" viewBox="0 0 162 105" fill="none" xmlns="http://www.w3.org/2000/svg">
<path d="M104.799 87.6386L48.7883 87.8518M104.799 87.6386V26.6095M104.799 87.6386H118.219M48.7883 87.8518C49.0344 78.905 41.7204 71.1401 32.4455 71.2221C23.25 71.3033 16.1559 78.9816 16.3998 87.8518C16.637 96.4792 23.5016 103.542 32.4455 103.621C41.471 103.701 48.5487 96.558 48.7883 87.8518ZM15.652 87.6386H4.15349C2.56288 87.6386 1.27344 86.3491 1.27344 84.7585V15.4305C1.27344 13.8399 2.56288 12.5505 4.15349 12.5505H101.919C103.51 12.5505 104.799 13.8399 104.799 15.4305V26.6095M104.799 26.6095H131.355C131.945 26.6095 132.509 26.8505 132.916 27.2765L159.797 55.3794C160.182 55.7814 160.396 56.3162 160.396 56.8725V85.4785C160.396 86.6715 159.429 87.6386 158.236 87.6386H150.491M115.663 36.7577V47.1357C115.663 48.3286 116.63 49.2957 117.823 49.2957H127.387C128.054 49.2957 128.683 49.6035 129.093 50.1296L136.742 59.9647C137.151 60.4908 137.78 60.7986 138.447 60.7986H148.871C150.736 60.7986 151.725 58.5949 150.485 57.2023L131.005 35.3214C130.596 34.861 130.008 34.5976 129.392 34.5976H117.823C116.63 34.5976 115.663 35.5647 115.663 36.7577ZM114.864 57.9229H121.574C122.368 57.9229 123.012 58.5666 123.012 59.3607C123.012 60.1548 122.368 60.7986 121.574 60.7986H114.864C114.07 60.7986 113.426 60.1548 113.426 59.3607C113.426 58.5666 114.07 57.9229 114.864 57.9229ZM123.274 87.129C123.113 81.2719 127.797 76.2019 133.869 76.1482C139.993 76.0941 144.823 81.2213 144.66 87.129C144.502 92.8777 139.828 97.5945 133.869 97.5417C127.963 97.4895 123.431 92.8257 123.274 87.129ZM117.922 87.1318C117.678 78.2616 124.772 70.5833 133.967 70.502C143.242 70.4201 150.556 78.185 150.31 87.1318C150.071 95.838 142.993 102.981 133.967 102.901C125.023 102.822 118.159 95.7592 117.922 87.1318ZM21.7521 87.849C21.5911 81.9919 26.2753 76.9219 32.3471 76.8682C38.4713 76.8141 43.3008 81.9413 43.1383 87.849C42.9801 93.5978 38.3067 98.3145 32.3471 98.2617C26.4415 98.2095 21.9087 93.5457 21.7521 87.849Z" stroke="#FF471D" stroke-width="2"/>
<path d="M24.3125 35.5692V21.3548V7.1403C24.3125 3.95908 26.8914 1.38019 30.0726 1.38019H46.6792H60.7382H75.4276C78.6089 1.38019 81.1877 3.96139 81.1877 7.1426V29.658V52.1735C81.1877 55.3547 78.6089 57.9359 75.4276 57.9359H61.0534H46.6792C46.2531 56.4448 44.762 53.4626 42.2058 53.4626H24.3125V45.794H42.2058C43.6969 45.581 46.6792 44.1964 46.6792 40.3621C46.6792 36.5278 43.6969 35.5692 42.2058 35.5692H24.3125Z" fill="#FF471D"/>
<path d="M46.6792 1.38019H30.0726C26.8914 1.38019 24.3125 3.95908 24.3125 7.1403V21.3548V35.5692H42.2058C43.6969 35.5692 46.6792 36.5278 46.6792 40.3621C46.6792 44.1964 43.6969 45.581 42.2058 45.794H24.3125V53.4626H42.2058C44.762 53.4626 46.2531 56.4448 46.6792 57.9359H61.0534H75.4276C78.6089 57.9359 81.1877 55.3547 81.1877 52.1735V29.658V7.1426C81.1877 3.96139 78.6089 1.38019 75.4276 1.38019H60.7382M46.6792 1.38019V8.88249C46.6792 11.2684 48.6133 13.2026 50.9992 13.2026H56.4181C58.8041 13.2026 60.7382 11.2684 60.7382 8.88249V1.38019M46.6792 1.38019H60.7382" stroke="#FF471D" stroke-width="2"/>
</svg>
