<svg width="56" height="67" viewBox="0 0 56 67" fill="none" xmlns="http://www.w3.org/2000/svg">
<path d="M13.6047 5.78444H3C1.89543 5.78444 1 6.67987 1 7.78444V64C1 65.1046 1.89543 66 3 66H52.3929C53.4974 66 54.3929 65.1046 54.3929 64V7.78444C54.3929 6.67987 53.4974 5.78444 52.3929 5.78444H41.9298M13.6047 8.87963H7.67365C6.56908 8.87963 5.67365 9.77506 5.67365 10.8796V59.3572C5.67365 60.4618 6.56908 61.3572 7.67365 61.3572H40.9384M40.9384 61.3572V53.9006H50.0025M40.9384 61.3572L50.0025 53.9006M50.0025 53.9006V10.8796C50.0025 9.77506 49.107 8.87963 48.0025 8.87963H41.9298M35.6983 21.9639C32.8658 19.7128 25.3879 16.7864 18.1367 23.0894C9.07266 30.9681 12.8966 50.2427 32.7241 47.2882C36.1232 45.975 42.7229 41.1259 41.9298 32.2343M32.7241 4.79961H37.2389C38.3435 4.79961 39.2389 5.69504 39.2389 6.79961V9.97483C39.2389 11.0794 38.3435 11.9748 37.2389 11.9748H18.2956C17.191 11.9748 16.2956 11.0794 16.2956 9.97483V6.79961C16.2956 5.69504 17.191 4.79961 18.2956 4.79961H23.3768C23.3768 4.79961 25.5942 1.0693 27.9089 1.00096C30.3091 0.930099 32.7241 4.79961 32.7241 4.79961ZM19.1281 33.0784C18.6088 31.7653 18.4483 29.336 21.9606 30.1239L27.9089 35.4702L41.9298 21.9639C43.0156 21.6356 45.0739 21.7388 44.6207 24.7777L29.4667 39.8316C29.1363 40.3005 27.9655 40.9571 25.9261 39.8316L19.1281 33.0784Z" stroke="#FF471D" stroke-width="1.5"/>
</svg>
