<svg width="72" height="67" viewBox="0 0 72 67" fill="none" xmlns="http://www.w3.org/2000/svg">
<path d="M16.8261 13.6609V1H26.0465M16.8261 13.6609H13.5233V24.5327M16.8261 13.6609H29.487M54.8087 13.6609V1H51.7811M54.8087 13.6609H57.6987V24.5327M54.8087 13.6609H42.1478M13.5233 24.5327L35.6798 18.3399M13.5233 24.5327L10.2204 25.7713V31.1384M57.6987 24.5327L35.6798 18.3399M57.6987 24.5327L61.2768 25.7713V31.1384M35.6798 18.3399V22.8813M10.2204 31.1384L6.64234 32.5146C7.28456 38.845 10.8535 52.5518 19.9913 56.7353M10.2204 31.1384L35.6798 22.8813M19.9913 56.7353C15.4499 54.1206 8.43138 61.6896 6.64234 59.3501C5.21112 57.4785 2.28444 56.8271 1 56.7353M19.9913 56.7353C21.2299 58.1574 24.285 60.8364 26.597 60.1758C29.487 59.3501 33.6155 55.4968 35.6798 55.4968M61.2768 31.1384L64.1667 32.5146C63.2034 38.7074 59.3776 52.2215 51.7811 56.7353M61.2768 31.1384L35.6798 22.8813M51.7811 56.7353C49.7627 57.8822 44.7626 59.7629 40.9093 58.1115C37.056 56.4601 35.8174 55.6803 35.6798 55.4968M51.7811 56.7353C53.2032 56.506 56.7354 56.4601 59.4877 58.1115C62.2401 59.7629 68.2494 57.0565 70.91 55.4968M35.6798 55.4968V22.8813M29.487 1V13.6609M29.487 1H26.0465M29.487 1H33.7531M29.487 13.6609H42.1478M42.1478 1V13.6609M42.1478 1H37.9505M42.1478 1H45.7259M20.817 1.13762V6.36711H26.0465V1M33.7531 1V6.36711H37.744L37.9505 1M33.7531 1H37.9505M45.7259 1V6.36711H51.7811V1M45.7259 1H51.7811M1 61.2767C2.60555 61.6896 6.25701 63.0933 8.01853 65.4053C10.2204 68.2953 17.2389 59.6253 19.9913 61.2767C22.7437 62.9282 24.1198 66.231 26.597 65.4053C29.0741 64.5796 32.3769 59.7629 35.6798 61.2767C38.9826 62.7905 42.6983 67.3319 48.7535 63.341C54.8087 59.3501 58.3868 65.4053 61.2768 65.4053C64.1667 65.4053 69.3962 61.2767 70.91 61.2767" stroke="#FF471D" stroke-width="1.5"/>
</svg>
