<svg width="46" height="67" viewBox="0 0 46 67" fill="none" xmlns="http://www.w3.org/2000/svg">
<path d="M14.6633 57.6429H8.43878C7.33421 57.6429 6.43878 56.7474 6.43878 55.6429V7.11224C6.43878 6.00767 7.33421 5.11224 8.43878 5.11224H13.8749C14.3815 5.11224 14.8692 5.30448 15.2396 5.65013L16.0767 6.4315C16.4471 6.77715 16.9348 6.96939 17.4414 6.96939H25.4646C26.0207 6.96939 26.5518 6.73782 26.9302 6.33029L27.4678 5.75134C27.8462 5.34381 28.3772 5.11224 28.9334 5.11224H34.1531C35.2576 5.11224 36.1531 6.00768 36.1531 7.11224V38.5408M40.9286 40.9286V9C40.9286 4.58172 37.3468 1 32.9286 1H9C4.58172 1 1 4.58172 1 9V54.4184C1 58.8366 4.58172 62.4184 9 62.4184H14.6633M20.898 66C20.0136 64.4966 18.1918 60.3224 17.9796 55.6531C17.7143 49.8163 18.2449 45.9694 23.1531 45.0408M23.1531 45.0408V54.0612M23.1531 45.0408V32.0408C24.0816 30.4048 26.602 28.1143 29.2551 32.0408V40.9286M29.2551 47.2959V40.9286M29.2551 40.9286C30.9354 40.1769 34.2959 39.6551 34.2959 43.5816M34.2959 43.5816V48.6224M34.2959 43.5816C36.0646 42.9184 39.602 42.4673 39.602 45.9694M39.602 45.9694V49.8163M39.602 45.9694C41.0612 45.1293 44.1653 44.2184 44.9082 47.2959C45.1735 52.9558 44.749 64.6204 40.9286 66M17.9796 17.9796L20.898 20.6327L30.5816 11.4796M20.898 12.5408C16.9179 12.8123 14.0204 16.6955 14.6633 20.6327C15.2008 23.9243 17.5706 26.2403 20.898 26.4694C24.4979 26.7172 27.4775 24.1936 28.0612 20.6327C28.744 16.4679 25.1085 12.2536 20.898 12.5408Z" stroke="#FF471D" stroke-width="1.5"/>
</svg>
