<svg width="91" height="58" viewBox="0 0 91 58" fill="none" xmlns="http://www.w3.org/2000/svg">
<path d="M6.61844 33.5326V1H84.008V33.5326M6.61844 33.5326H84.008M6.61844 33.5326H1V41.2353H7.07154M84.008 33.5326H89.717V41.2353H86.6359M7.07154 41.2353L11.965 47.1256H37.973L41.4165 41.2353M7.07154 41.2353H41.4165M41.4165 41.2353H52.2003M52.2003 41.2353L56.7313 47.1256H83.1018L86.6359 41.2353M52.2003 41.2353H86.6359M73.8585 6.52782V28.3672M65.7933 6.52782V28.3672M57.5469 6.52782V28.3672M41.4165 6.52782V28.3672M32.9889 6.52782V28.3672M24.6518 6.52782V28.3672M16.8585 6.52782V28.3672M49.2099 6.52782V28.3672" stroke="#FF471D"/>
<circle cx="18.3083" cy="52.5627" r="4.9372" stroke="#FF471D"/>
<circle cx="63.1652" cy="52.5627" r="4.9372" stroke="#FF471D"/>
<circle cx="32.5358" cy="52.5627" r="4.9372" stroke="#FF471D"/>
<circle cx="77.3928" cy="52.5627" r="4.9372" stroke="#FF471D"/>
</svg>
