<svg width="105" height="59" viewBox="0 0 105 59" fill="none" xmlns="http://www.w3.org/2000/svg">
<path d="M23.309 6.2545V5C23.309 2.79086 25.0999 1 27.309 1H70.3478C72.557 1 74.3478 2.79086 74.3478 5V11.1048M74.3478 48.6947C74.3478 48.6947 60.1415 48.6947 51.0388 48.6947M74.3478 48.6947C74.3478 48.6947 75.8174 48.6947 76.7591 48.6947M74.3478 48.6947V11.1048M51.0388 48.6947C50.8271 44.0117 47.2555 40.4195 42.5993 40.2067C37.7163 39.9834 33.578 43.7837 33.3561 48.6947M51.0388 48.6947C51.0388 53.545 47.4822 57.7679 42.5993 57.9911C37.4997 58.2243 33.1243 53.8237 33.3561 48.6947M33.3561 48.6947C31.5366 48.6947 29.244 48.6947 27.3084 48.6947C25.0993 48.6947 23.309 46.9038 23.309 44.6947V43.4402M76.7591 48.6947C76.7591 44.6528 80.8272 40.2067 85.6005 40.2067C90.3737 40.2067 94.2199 43.8992 94.4418 48.6947M76.7591 48.6947C76.7591 53.545 80.6053 57.9911 85.6005 57.9911C90.5956 57.9911 94.6637 53.7137 94.4418 48.6947M94.4418 48.6947C96.1388 48.6947 98.2644 48.6947 100.088 48.6947C102.297 48.6947 104.087 46.9038 104.087 44.6947V31.3144M104.087 31.3144L93.5868 13.1066C92.8725 11.868 91.5515 11.1048 90.1217 11.1048H74.3478M104.087 31.3144H86.5911C84.9342 31.3144 83.5911 29.9713 83.5911 28.3144V17.9761M6.83196 12.3174H12.8602M16.4771 12.3174H41.3937M6.83196 21.2096H31.7485M0 29.2935H11.2526M13.6639 29.2935H38.9824M5.22444 38.1857H30.9448" stroke="#FF471D"/>
</svg>
