<svg width="52" height="35" viewBox="0 0 52 35" fill="none" xmlns="http://www.w3.org/2000/svg">
<path d="M2.02013 0.190366C1.0186 0.530857 0.307609 1.33205 0.0873248 2.34345C0.00718693 2.70407 -0.0127527 7.2104 0.00718676 17.8256L0.0371919 32.7968L0.317673 33.3676C0.638035 34.0085 1.11886 34.4793 1.77972 34.7898L2.24041 35H25.6238H49.0069L49.4676 34.7898C50.1287 34.4793 50.6093 34.0085 50.9297 33.3676L51.2101 32.7968V17.5252V2.25344L50.9297 1.6826C50.6093 1.04169 50.1287 0.570925 49.4676 0.260438C49.0069 0.0502191 48.9268 0.0502206 39.243 0.0202164C32.0128 8.70001e-05 29.409 0.0302802 29.1988 0.110228C28.8984 0.2405 28.628 0.661129 28.628 1.00162C28.628 1.29198 28.8883 1.76274 29.0986 1.86281C29.1988 1.91295 33.3548 1.97296 38.3417 2.00296L47.4148 2.0531L36.5894 10.9659C30.6409 15.8727 25.7037 19.8784 25.6137 19.8684C25.5336 19.8684 20.5965 15.8628 14.658 10.9558L3.8426 2.0531L12.9056 2.00296C17.8927 1.97296 22.0485 1.91295 22.1488 1.86281C22.359 1.76274 22.6194 1.29197 22.6194 1.01168C22.6194 0.90135 22.5694 0.691132 22.4991 0.550985C22.2388 -0.0198543 22.6594 8.50175e-05 12.1845 8.50175e-05C3.19181 0.0101497 2.51083 0.0202157 2.02013 0.190366ZM10.7326 10.3248C15.4793 14.2405 19.3648 17.4751 19.3648 17.5252C19.3648 17.6052 2.14015 31.8456 2.04007 31.8456C2.01007 31.8456 1.98993 25.3964 1.98993 17.5252C1.98993 9.64397 2.01007 3.20465 2.04007 3.20465C2.07007 3.20465 5.97575 6.40922 10.7326 10.3248ZM49.2574 17.5252C49.2574 25.3964 49.2373 31.8456 49.2073 31.8456C49.1171 31.8456 31.8827 17.6052 31.8827 17.5252C31.8827 17.4451 49.057 3.22478 49.1873 3.21471C49.2272 3.20465 49.2574 9.64397 49.2574 17.5252ZM22.8497 20.319C23.661 20.9901 24.4921 21.6409 24.7024 21.7611C25.153 22.0215 26.0243 22.0515 26.4749 21.8113C26.645 21.7211 27.5465 21.0201 28.4778 20.2489C29.9398 19.0372 30.2002 18.857 30.3504 18.9572C30.4506 19.0273 34.3261 22.2118 38.9728 26.0373L47.4148 32.9971L36.5793 33.0271C30.6208 33.0372 20.8168 33.0372 14.7882 33.0271L3.8426 32.9971L12.4449 25.907C20.0058 19.6781 21.0671 18.837 21.2074 18.9572C21.2975 19.0372 22.0386 19.6481 22.8497 20.319Z" fill="#FF471D"/>
</svg>
