<svg width="158" height="39" viewBox="0 0 158 39" fill="none" xmlns="http://www.w3.org/2000/svg">
<path d="M16.509 0L0 9.57131L4.11407 11.8853L20.6231 2.31394L16.509 0Z" fill="#AF8F88"/>
<path d="M28.9567 7.0996L24.8427 4.68048L7.54247 14.7777L11.4983 17.1968L28.9567 7.0996Z" fill="#AF8F88"/>
<path d="M33.0181 28.6614V9.62391L29.0095 11.8853V30.8175L33.0181 28.6614Z" fill="#737195"/>
<path d="M24.7372 33.3944V14.3044L20.6231 16.6709V35.8135L24.7372 33.3944Z" fill="#737195"/>
<path d="M16.6673 23.8231L0 14.1992V19.09L16.6673 28.7139V23.8231Z" fill="#A46557"/>
<path d="M16.6673 33.447L0 23.8231V28.451L16.6673 38.0749V33.447Z" fill="#A46557"/>
<path d="M59.4485 26.2343H46.7083C46.5078 26.2343 46.3216 26.1984 46.1497 26.1268C45.9778 26.0552 45.8275 25.9585 45.6985 25.8368C45.5768 25.7079 45.4801 25.5575 45.4085 25.3856C45.3369 25.2137 45.3011 25.0275 45.3011 24.827V10.83H48.0941V23.4413H59.4485V26.2343ZM78.1925 20.0038C78.1925 20.9419 78.0313 21.8049 77.7091 22.5927C77.3868 23.3804 76.9392 24.0608 76.3663 24.6337C75.7934 25.2066 75.113 25.6542 74.3253 25.9764C73.5447 26.2915 72.6925 26.4491 71.7686 26.4491H67.9874C67.0636 26.4491 66.2078 26.2915 65.42 25.9764C64.6322 25.6542 63.9519 25.2066 63.379 24.6337C62.8061 24.0608 62.3549 23.3804 62.0255 22.5927C61.7032 21.8049 61.5421 20.9419 61.5421 20.0038V17.0604C61.5421 16.1294 61.7032 15.2701 62.0255 14.4823C62.3549 13.6874 62.8061 13.007 63.379 12.4413C63.9519 11.8684 64.6322 11.4208 65.42 11.0985C66.2078 10.7762 67.0636 10.6151 67.9874 10.6151H71.7686C72.6925 10.6151 73.5447 10.7762 74.3253 11.0985C75.113 11.4208 75.7934 11.8684 76.3663 12.4413C76.9392 13.007 77.3868 13.6874 77.7091 14.4823C78.0313 15.2701 78.1925 16.1294 78.1925 17.0604V20.0038ZM75.3995 17.0604C75.3995 16.509 75.31 16.0113 75.1309 15.5673C74.9591 15.1161 74.712 14.733 74.3897 14.4178C74.0746 14.0956 73.6915 13.8485 73.2403 13.6766C72.7963 13.4976 72.3057 13.4081 71.7686 13.4081H67.9874C67.4431 13.4081 66.9454 13.4976 66.4942 13.6766C66.0502 13.8485 65.6671 14.0956 65.3448 14.4178C65.0225 14.733 64.7719 15.1161 64.5929 15.5673C64.421 16.0113 64.335 16.509 64.335 17.0604V20.0038C64.335 20.5552 64.421 21.0565 64.5929 21.5077C64.7719 21.9517 65.0225 22.3348 65.3448 22.6571C65.6671 22.9722 66.0502 23.2193 66.4942 23.3983C66.9454 23.5702 67.4431 23.6561 67.9874 23.6561H71.7472C72.2914 23.6561 72.7856 23.5702 73.2296 23.3983C73.6807 23.2193 74.0675 22.9722 74.3897 22.6571C74.712 22.3348 74.9591 21.9517 75.1309 21.5077C75.31 21.0565 75.3995 20.5552 75.3995 20.0038V17.0604ZM96.9149 24.827C96.9149 25.0275 96.8791 25.2137 96.8075 25.3856C96.7359 25.5575 96.6356 25.7079 96.5067 25.8368C96.385 25.9585 96.2381 26.0552 96.0663 26.1268C95.8944 26.1984 95.7082 26.2343 95.5077 26.2343H85.4315C85.1737 26.2343 84.8944 26.2056 84.5936 26.1483C84.3 26.0839 84.0064 25.9872 83.7128 25.8583C83.4263 25.7294 83.1506 25.5647 82.8856 25.3641C82.6206 25.1565 82.3843 24.9094 82.1766 24.6229C81.9761 24.3293 81.815 23.9927 81.6932 23.6132C81.5715 23.2264 81.5106 22.7932 81.5106 22.3134V14.7509C81.5106 14.493 81.5393 14.2173 81.5965 13.9237C81.661 13.6229 81.7577 13.3293 81.8866 13.0428C82.0155 12.7492 82.1838 12.4699 82.3915 12.205C82.5991 11.94 82.8462 11.7072 83.1327 11.5067C83.4263 11.299 83.7629 11.1343 84.1424 11.0126C84.522 10.8908 84.9517 10.83 85.4315 10.83H96.786V13.6229H85.4315C85.0663 13.6229 84.787 13.7196 84.5936 13.913C84.4003 14.1063 84.3036 14.3928 84.3036 14.7723V22.3134C84.3036 22.6714 84.4003 22.9507 84.5936 23.1512C84.7941 23.3446 85.0734 23.4413 85.4315 23.4413H94.1219V19.9393H86.6883V17.1249H95.5077C95.7082 17.1249 95.8944 17.1643 96.0663 17.243C96.2381 17.3147 96.385 17.4149 96.5067 17.5438C96.6356 17.6727 96.7359 17.8231 96.8075 17.995C96.8791 18.1597 96.9149 18.3387 96.9149 18.5321V24.827ZM103.402 26.2343H100.609V10.83H103.402V26.2343ZM121.351 13.6229H115.196V26.2343H112.403V13.6229H106.237V10.83H121.351V13.6229ZM136.84 19.9393H128.021V17.1249H136.84V19.9393ZM138.097 26.2343H128.021C127.634 26.2343 127.211 26.1662 126.753 26.0302C126.295 25.8941 125.869 25.6721 125.475 25.3641C125.088 25.049 124.762 24.6444 124.497 24.1503C124.239 23.649 124.111 23.0367 124.111 22.3134V12.2372C124.111 12.0438 124.146 11.8612 124.218 11.6893C124.29 11.5175 124.386 11.3671 124.508 11.2382C124.637 11.1093 124.787 11.009 124.959 10.9374C125.131 10.8658 125.317 10.83 125.518 10.83H138.097V13.6229H126.903V22.3134C126.903 22.6786 127 22.9579 127.194 23.1512C127.387 23.3446 127.67 23.4413 128.042 23.4413H138.097V26.2343ZM148.602 16.33L153.307 10.83H157.12L150.492 18.5536L157.077 26.2343H153.285L148.602 20.7772L143.939 26.2343H140.137L146.711 18.5536L140.115 10.83H143.896L148.602 16.33Z" fill="white"/>
</svg>
