<svg width="37" height="36" viewBox="0 0 37 36" fill="none" xmlns="http://www.w3.org/2000/svg">
<path d="M4.91721 5.81077C2.73121 6.32327 1.21992 7.35462 0.506419 8.827C0.0652694 9.73516 -0.00608099 10.1179 0.000384036 11.4929C0.0263617 16.0661 1.45337 20.7558 4.01564 24.7062C5.70853 27.3202 8.03077 29.7137 10.6578 31.5495C14.686 34.371 19.6546 35.9667 24.5066 35.9992C25.4537 36.0057 25.7586 35.9862 26.1283 35.8889C28.2754 35.3246 29.657 33.6186 30.2213 30.8489C30.364 30.1548 30.3185 29.2856 30.124 28.7667C29.8386 28.0272 29.6764 27.8586 27.6201 26.2305C25.1683 24.2845 24.9477 24.1223 24.4158 23.9278C23.8449 23.7202 23.0407 23.6682 22.4374 23.8109C21.698 23.9861 21.3023 24.2456 20.1736 25.3028L19.1423 26.2694L18.8049 26.185C16.3076 25.5559 12.6946 22.7536 10.9043 20.0552C10.2881 19.1277 9.81453 17.999 9.71074 17.2337L9.67183 16.9158L10.6709 15.852C11.7411 14.7103 12.0135 14.3082 12.1821 13.5947C12.3703 12.7838 12.2795 11.9795 11.9098 11.2271C11.8189 11.0324 10.9497 9.8714 9.98321 8.65186C8.1281 6.31023 7.9854 6.16753 7.23287 5.87566C6.71402 5.67454 5.64377 5.64209 4.91721 5.81077ZM6.88916 7.24436C7.19396 7.38048 7.3302 7.53623 8.85453 9.45623C9.75623 10.5914 10.5865 11.6876 10.6902 11.8952C10.8589 12.2195 10.8849 12.3233 10.8783 12.7838C10.8719 13.5493 10.7551 13.7568 9.55511 15.0152C8.21238 16.4358 8.29019 16.3255 8.30324 16.8963C8.38752 19.692 11.3324 23.6033 15.179 26.0294C16.6384 26.9505 18.9087 27.8327 19.4926 27.7093C19.6287 27.6769 20.0569 27.3201 20.8676 26.5677C22.2623 25.2639 22.5088 25.1148 23.2417 25.1212C23.5986 25.1212 23.8126 25.1601 24.0396 25.2639C24.2083 25.3353 25.311 26.1526 26.485 27.0737C28.911 28.9743 28.898 28.9613 28.9369 29.8175C28.9824 30.6932 28.5608 32.0618 27.9834 32.944C27.445 33.7744 26.7315 34.2932 25.8233 34.5268C25.4861 34.6175 25.1812 34.6306 24.085 34.5981C22.6709 34.5592 21.6331 34.449 20.3228 34.1894C11.5075 32.451 4.39825 25.77 2.12797 17.0714C1.66742 15.3135 1.45337 13.8152 1.40153 11.947C1.36909 10.8119 1.38202 10.52 1.47288 10.1762C1.82317 8.80102 2.78963 7.91238 4.52802 7.34804C5.53339 7.02373 6.29885 6.99129 6.88916 7.24436Z" fill="#FF4E43"/>
<path d="M26.9056 19.8079C26.9056 14.0373 22.2276 9.35938 16.457 9.35938" stroke="#FF4E43" stroke-width="2"/>
<path d="M31.085 19.8076C31.085 11.7288 24.5358 5.17969 16.457 5.17969" stroke="#FF4E43" stroke-width="2"/>
<path d="M35.2644 19.8073C35.2644 9.42034 26.844 1 16.457 1" stroke="#FF4E43" stroke-width="2"/>
</svg>
