<svg width="61" height="58" viewBox="0 0 61 58" fill="none" xmlns="http://www.w3.org/2000/svg">
<path d="M4.73647 33.5326V1H56.2033V33.5326M4.73647 33.5326H56.2033M4.73647 33.5326H1V41.2353H5.03779M56.2033 33.5326H60V41.2353H57.951M5.03779 41.2353L8.29213 47.1256H25.5884L27.8784 41.2353M5.03779 41.2353H27.8784M27.8784 41.2353H35.0501M35.0501 41.2353L38.0633 47.1256H55.6006L57.951 41.2353M35.0501 41.2353H57.951M49.4535 6.52782V28.3672M44.0899 6.52782V28.3672M38.6057 6.52782V28.3672M27.8784 6.52782V28.3672M22.2737 6.52782V28.3672M16.7293 6.52782V28.3672M11.5465 6.52782V28.3672M33.0613 6.52782V28.3672" stroke="#FF471D"/>
<path d="M15.6264 52.5627C15.6264 53.9794 15.2436 55.2394 14.651 56.1305C14.056 57.0252 13.2892 57.4999 12.5105 57.4999C11.7317 57.4999 10.965 57.0252 10.37 56.1305C9.77733 55.2394 9.39453 53.9794 9.39453 52.5627C9.39453 51.1459 9.77733 49.886 10.37 48.9949C10.965 48.1002 11.7317 47.6255 12.5105 47.6255C13.2892 47.6255 14.056 48.1002 14.651 48.9949C15.2436 49.886 15.6264 51.1459 15.6264 52.5627Z" stroke="#FF471D"/>
<path d="M45.4579 52.5627C45.4579 53.9794 45.0751 55.2394 44.4825 56.1305C43.8875 57.0252 43.1208 57.4999 42.342 57.4999C41.5633 57.4999 40.7965 57.0252 40.2015 56.1305C39.6089 55.2394 39.2261 53.9794 39.2261 52.5627C39.2261 51.1459 39.6089 49.886 40.2015 48.9949C40.7965 48.1002 41.5633 47.6255 42.342 47.6255C43.1208 47.6255 43.8875 48.1002 44.4825 48.9949C45.0751 49.886 45.4579 51.1459 45.4579 52.5627Z" stroke="#FF471D"/>
<path d="M25.0883 52.5627C25.0883 53.9794 24.7055 55.2394 24.1129 56.1305C23.5179 57.0252 22.7511 57.4999 21.9724 57.4999C21.1936 57.4999 20.4269 57.0252 19.8319 56.1305C19.2392 55.2394 18.8564 53.9794 18.8564 52.5627C18.8564 51.1459 19.2392 49.886 19.8319 48.9949C20.4269 48.1002 21.1936 47.6255 21.9724 47.6255C22.7511 47.6255 23.5179 48.1002 24.1129 48.9949C24.7055 49.886 25.0883 51.1459 25.0883 52.5627Z" stroke="#FF471D"/>
<path d="M54.9199 52.5627C54.9199 53.9794 54.5371 55.2394 53.9444 56.1305C53.3494 57.0252 52.5827 57.4999 51.8039 57.4999C51.0252 57.4999 50.2584 57.0252 49.6634 56.1305C49.0708 55.2394 48.688 53.9794 48.688 52.5627C48.688 51.1459 49.0708 49.886 49.6634 48.9949C50.2584 48.1002 51.0252 47.6255 51.8039 47.6255C52.5827 47.6255 53.3494 48.1002 53.9444 48.9949C54.5371 49.886 54.9199 51.1459 54.9199 52.5627Z" stroke="#FF471D"/>
</svg>
