<svg width="63" height="59" viewBox="0 0 63 59" fill="none" xmlns="http://www.w3.org/2000/svg">
<path d="M13.8842 6.2545V5C13.8842 2.79086 15.675 1 17.8842 1H40.2857C42.4949 1 44.2857 2.79086 44.2857 5V11.1048M44.2857 48.6947C44.2857 48.6947 35.8237 48.6947 30.4015 48.6947M44.2857 48.6947C44.2857 48.6947 45.1611 48.6947 45.722 48.6947M44.2857 48.6947V11.1048M30.4015 48.6947C30.2755 44.0117 28.148 40.4195 25.3745 40.2067C22.466 39.9834 20.0009 43.7837 19.8687 48.6947M30.4015 48.6947C30.4015 53.545 28.2831 57.7679 25.3745 57.9911C22.3369 58.2243 19.7307 53.8237 19.8687 48.6947M19.8687 48.6947C19.266 48.6947 18.5761 48.6947 17.8842 48.6947C15.675 48.6947 13.8842 46.9038 13.8842 44.6947V43.4402M45.722 48.6947C45.722 44.6528 48.1452 40.2067 50.9884 40.2067C53.8316 40.2067 56.1227 43.8992 56.2548 48.6947M45.722 48.6947C45.722 53.545 48.013 57.9911 50.9884 57.9911C53.9638 57.9911 56.387 53.7137 56.2548 48.6947M56.2548 48.6947C56.7869 48.6947 57.3898 48.6947 57.9999 48.6947C60.209 48.6947 62 46.9038 62 44.6947V31.3144M62 31.3144L55.9856 13.8053C55.4306 12.1897 53.9108 11.1048 52.2025 11.1048H44.2857M62 31.3144H52.7915C51.1347 31.3144 49.7915 29.9713 49.7915 28.3144V17.9761M4.0695 12.3174H7.66023M9.81467 12.3174H24.6564M4.0695 21.2096H18.9112M0 29.2935H6.7027M8.139 29.2935H23.2201M3.11197 38.1857H18.4324" stroke="#FF471D"/>
</svg>
